# Blender 4.2.2 LTS
# www.blender.org
mtllib untitled.mtl
o tesseract
v 0.950000 0.000000 1.050000
v 1.050000 0.000000 1.050000
v 0.950000 1.000000 1.050000
v 1.050000 1.000000 1.050000
v 0.950000 1.000000 0.950000
v 1.050000 1.000000 0.950000
v 0.950000 0.000000 0.950000
v 1.050000 0.000000 0.950000
v 0.950000 0.000000 0.050000
v 1.050000 0.000000 0.050000
v 0.950000 1.000000 0.050000
v 1.050000 1.000000 0.050000
v 0.950000 1.000000 -0.050000
v 1.050000 1.000000 -0.050000
v 0.950000 -0.000000 -0.050000
v 1.050000 -0.000000 -0.050000
v -0.050000 0.000000 0.050000
v 0.050000 0.000000 0.050000
v -0.050000 1.000000 0.050000
v 0.050000 1.000000 0.050000
v -0.050000 1.000000 -0.050000
v 0.050000 1.000000 -0.050000
v -0.050000 -0.000000 -0.050000
v 0.050000 -0.000000 -0.050000
v -0.050000 0.000000 1.050000
v 0.050000 0.000000 1.050000
v -0.050000 1.000000 1.050000
v 0.050000 1.000000 1.050000
v -0.050000 1.000000 0.950000
v 0.050000 1.000000 0.950000
v -0.050000 0.000000 0.950000
v 0.050000 0.000000 0.950000
v 1.050000 -0.050000 0.000000
v 1.050000 0.050000 -0.000000
v 1.050000 -0.050000 1.000000
v 1.050000 0.050000 1.000000
v 0.950000 -0.050000 1.000000
v 0.950000 0.050000 1.000000
v 0.950000 -0.050000 0.000000
v 0.950000 0.050000 -0.000000
v 1.000000 -0.050000 0.050000
v 1.000000 0.050000 0.050000
v 0.000000 -0.050000 0.050000
v 0.000000 0.050000 0.050000
v 0.000000 -0.050000 -0.050000
v 0.000000 0.050000 -0.050000
v 1.000000 -0.050000 -0.050000
v 1.000000 0.050000 -0.050000
v 0.050000 -0.050000 0.000000
v 0.050000 0.050000 -0.000000
v 0.050000 -0.050000 1.000000
v 0.050000 0.050000 1.000000
v -0.050000 -0.050000 1.000000
v -0.050000 0.050000 1.000000
v -0.050000 -0.050000 0.000000
v -0.050000 0.050000 -0.000000
v 1.000000 -0.050000 1.050000
v 1.000000 0.050000 1.050000
v 0.000000 -0.050000 1.050000
v 0.000000 0.050000 1.050000
v 0.000000 -0.050000 0.950000
v 0.000000 0.050000 0.950000
v 1.000000 -0.050000 0.950000
v 1.000000 0.050000 0.950000
v 0.950000 0.950000 -0.000000
v 1.050000 0.950000 -0.000000
v 0.950000 0.950000 1.000000
v 1.050000 0.950000 1.000000
v 0.950000 1.050000 1.000000
v 1.050000 1.050000 1.000000
v 0.950000 1.050000 -0.000000
v 1.050000 1.050000 -0.000000
v 0.000000 0.950000 0.050000
v 0.000000 0.950000 -0.050000
v 1.000000 0.950000 0.050000
v 1.000000 0.950000 -0.050000
v 1.000000 1.050000 0.050000
v 1.000000 1.050000 -0.050000
v 0.000000 1.050000 0.050000
v 0.000000 1.050000 -0.050000
v -0.050000 0.950000 -0.000000
v 0.050000 0.950000 -0.000000
v -0.050000 0.950000 1.000000
v 0.050000 0.950000 1.000000
v -0.050000 1.050000 1.000000
v 0.050000 1.050000 1.000000
v -0.050000 1.050000 -0.000000
v 0.050000 1.050000 -0.000000
v 0.000000 0.950000 1.050000
v 0.000000 0.950000 0.950000
v 1.000000 0.950000 1.050000
v 1.000000 0.950000 0.950000
v 1.000000 1.050000 1.050000
v 1.000000 1.050000 0.950000
v 0.000000 1.050000 1.050000
v 0.000000 1.050000 0.950000
v 0.650000 0.300000 0.750000
v 0.750000 0.300000 0.750000
v 0.650000 0.700000 0.750000
v 0.750000 0.700000 0.750000
v 0.650000 0.700000 0.650000
v 0.750000 0.700000 0.650000
v 0.650000 0.300000 0.650000
v 0.750000 0.300000 0.650000
v 0.650000 0.300000 0.350000
v 0.750000 0.300000 0.350000
v 0.650000 0.700000 0.350000
v 0.750000 0.700000 0.350000
v 0.650000 0.700000 0.250000
v 0.750000 0.700000 0.250000
v 0.650000 0.300000 0.250000
v 0.750000 0.300000 0.250000
v 0.250000 0.300000 0.350000
v 0.350000 0.300000 0.350000
v 0.250000 0.700000 0.350000
v 0.350000 0.700000 0.350000
v 0.250000 0.700000 0.250000
v 0.350000 0.700000 0.250000
v 0.250000 0.300000 0.250000
v 0.350000 0.300000 0.250000
v 0.250000 0.300000 0.750000
v 0.350000 0.300000 0.750000
v 0.250000 0.700000 0.750000
v 0.350000 0.700000 0.750000
v 0.250000 0.700000 0.650000
v 0.350000 0.700000 0.650000
v 0.250000 0.300000 0.650000
v 0.350000 0.300000 0.650000
v 0.650000 0.250000 0.300000
v 0.750000 0.250000 0.300000
v 0.650000 0.250000 0.700000
v 0.750000 0.250000 0.700000
v 0.650000 0.350000 0.700000
v 0.750000 0.350000 0.700000
v 0.650000 0.350000 0.300000
v 0.750000 0.350000 0.300000
v 0.700000 0.250000 0.350000
v 0.700000 0.350000 0.350000
v 0.300000 0.250000 0.350000
v 0.300000 0.350000 0.350000
v 0.300000 0.250000 0.250000
v 0.300000 0.350000 0.250000
v 0.700000 0.250000 0.250000
v 0.700000 0.350000 0.250000
v 0.250000 0.250000 0.300000
v 0.350000 0.250000 0.300000
v 0.250000 0.250000 0.700000
v 0.350000 0.250000 0.700000
v 0.250000 0.350000 0.700000
v 0.350000 0.350000 0.700000
v 0.250000 0.350000 0.300000
v 0.350000 0.350000 0.300000
v 0.700000 0.250000 0.750000
v 0.700000 0.350000 0.750000
v 0.300000 0.250000 0.750000
v 0.300000 0.350000 0.750000
v 0.300000 0.250000 0.650000
v 0.300000 0.350000 0.650000
v 0.700000 0.250000 0.650000
v 0.700000 0.350000 0.650000
v 0.650000 0.650000 0.300000
v 0.750000 0.650000 0.300000
v 0.650000 0.650000 0.700000
v 0.750000 0.650000 0.700000
v 0.650000 0.750000 0.700000
v 0.750000 0.750000 0.700000
v 0.650000 0.750000 0.300000
v 0.750000 0.750000 0.300000
v 0.700000 0.650000 0.350000
v 0.700000 0.750000 0.350000
v 0.300000 0.650000 0.350000
v 0.300000 0.750000 0.350000
v 0.300000 0.650000 0.250000
v 0.300000 0.750000 0.250000
v 0.700000 0.650000 0.250000
v 0.700000 0.750000 0.250000
v 0.250000 0.650000 0.300000
v 0.350000 0.650000 0.300000
v 0.250000 0.650000 0.700000
v 0.350000 0.650000 0.700000
v 0.250000 0.750000 0.700000
v 0.350000 0.750000 0.700000
v 0.250000 0.750000 0.300000
v 0.350000 0.750000 0.300000
v 0.700000 0.650000 0.750000
v 0.700000 0.750000 0.750000
v 0.300000 0.650000 0.750000
v 0.300000 0.750000 0.750000
v 0.300000 0.650000 0.650000
v 0.300000 0.750000 0.650000
v 0.700000 0.650000 0.650000
v 0.700000 0.750000 0.650000
v 0.979731 0.047563 1.050441
v 1.050441 0.047563 0.979731
v 0.690117 0.334352 0.760827
v 0.760827 0.334352 0.690117
v 0.649559 0.252437 0.720269
v 0.720269 0.252437 0.649559
v 0.939173 -0.034352 1.009883
v 1.009883 -0.034352 0.939173
v 0.939173 -0.034352 -0.009883
v 1.009883 -0.034352 0.060827
v 0.649559 0.252437 0.279731
v 0.720269 0.252437 0.350441
v 0.690117 0.334352 0.239173
v 0.760827 0.334352 0.309883
v 0.979731 0.047563 -0.050441
v 1.050441 0.047563 0.020269
v -0.009883 -0.034352 0.060827
v 0.060827 -0.034352 -0.009883
v 0.279731 0.252437 0.350441
v 0.350441 0.252437 0.279731
v 0.239173 0.334352 0.309883
v 0.309883 0.334352 0.239173
v -0.050441 0.047563 0.020269
v 0.020269 0.047563 -0.050441
v -0.050441 0.047563 0.979731
v 0.020269 0.047563 1.050441
v 0.239173 0.334352 0.690117
v 0.309883 0.334352 0.760827
v 0.279731 0.252437 0.649559
v 0.350441 0.252437 0.720269
v -0.009883 -0.034352 0.939173
v 0.060827 -0.034352 1.009883
v 0.690117 0.665648 0.760827
v 0.760827 0.665648 0.690117
v 0.979731 0.952437 1.050441
v 1.050441 0.952437 0.979731
v 0.939173 1.034352 1.009883
v 1.009883 1.034352 0.939173
v 0.649559 0.747563 0.720269
v 0.720269 0.747563 0.649559
v 0.649559 0.747563 0.279731
v 0.720269 0.747563 0.350441
v 0.939173 1.034352 -0.009883
v 1.009883 1.034352 0.060827
v 0.979731 0.952437 -0.050441
v 1.050441 0.952437 0.020269
v 0.690117 0.665648 0.239173
v 0.760827 0.665648 0.309883
v 0.279731 0.747563 0.350441
v 0.350441 0.747563 0.279731
v -0.009883 1.034352 0.060827
v 0.060827 1.034352 -0.009883
v -0.050441 0.952437 0.020269
v 0.020269 0.952437 -0.050441
v 0.239173 0.665648 0.309883
v 0.309883 0.665648 0.239173
v 0.239173 0.665648 0.690117
v 0.309883 0.665648 0.760827
v -0.050441 0.952437 0.979731
v 0.020269 0.952437 1.050441
v -0.009883 1.034352 0.939173
v 0.060827 1.034352 1.009883
v 0.279731 0.747563 0.649559
v 0.350441 0.747563 0.720269
vn -0.0000 -0.0000 1.0000
vn -0.0000 1.0000 -0.0000
vn -0.0000 -0.0000 -1.0000
vn -0.0000 -1.0000 -0.0000
vn 1.0000 -0.0000 -0.0000
vn -1.0000 -0.0000 -0.0000
vn 0.4056 0.8192 0.4056
vn -0.5792 0.5736 -0.5792
vn -0.4056 -0.8192 -0.4056
vn 0.5792 -0.5736 0.5792
vn 0.7071 -0.0000 -0.7071
vn -0.7071 -0.0000 0.7071
vn -0.4056 -0.8192 0.4056
vn -0.5792 0.5736 0.5792
vn 0.4056 0.8192 -0.4056
vn 0.5792 -0.5736 -0.5792
vn 0.7071 -0.0000 0.7071
vn -0.7071 -0.0000 -0.7071
vn 0.4056 -0.8192 0.4056
vn 0.5792 0.5736 0.5792
vn -0.4056 0.8192 -0.4056
vn -0.5792 -0.5736 -0.5792
vn -0.4056 0.8192 0.4056
vn 0.5792 0.5736 -0.5792
vn 0.4056 -0.8192 -0.4056
vn -0.5792 -0.5736 0.5792
vt 0.375000 0.000000
vt 0.625000 0.000000
vt 0.625000 0.250000
vt 0.375000 0.250000
vt 0.625000 0.500000
vt 0.375000 0.500000
vt 0.625000 0.750000
vt 0.375000 0.750000
vt 0.625000 1.000000
vt 0.375000 1.000000
vt 0.875000 0.000000
vt 0.875000 0.250000
vt 0.125000 0.000000
vt 0.125000 0.250000
s 0
usemtl lambert7SG
f 1/1/1 2/2/1 4/3/1 3/4/1
f 3/4/2 4/3/2 6/5/2 5/6/2
f 5/6/3 6/5/3 8/7/3 7/8/3
f 7/8/4 8/7/4 2/9/4 1/10/4
f 2/2/5 8/11/5 6/12/5 4/3/5
f 7/13/6 1/1/6 3/4/6 5/14/6
f 9/1/1 10/2/1 12/3/1 11/4/1
f 11/4/2 12/3/2 14/5/2 13/6/2
f 13/6/3 14/5/3 16/7/3 15/8/3
f 15/8/4 16/7/4 10/9/4 9/10/4
f 10/2/5 16/11/5 14/12/5 12/3/5
f 15/13/6 9/1/6 11/4/6 13/14/6
f 17/1/1 18/2/1 20/3/1 19/4/1
f 19/4/2 20/3/2 22/5/2 21/6/2
f 21/6/3 22/5/3 24/7/3 23/8/3
f 23/8/4 24/7/4 18/9/4 17/10/4
f 18/2/5 24/11/5 22/12/5 20/3/5
f 23/13/6 17/1/6 19/4/6 21/14/6
f 25/1/1 26/2/1 28/3/1 27/4/1
f 27/4/2 28/3/2 30/5/2 29/6/2
f 29/6/3 30/5/3 32/7/3 31/8/3
f 31/8/4 32/7/4 26/9/4 25/10/4
f 26/2/5 32/11/5 30/12/5 28/3/5
f 31/13/6 25/1/6 27/4/6 29/14/6
f 33/1/5 34/2/5 36/3/5 35/4/5
f 35/4/1 36/3/1 38/5/1 37/6/1
f 37/6/6 38/5/6 40/7/6 39/8/6
f 39/8/3 40/7/3 34/9/3 33/10/3
f 34/2/2 40/11/2 38/12/2 36/3/2
f 39/13/4 33/1/4 35/4/4 37/14/4
f 41/1/1 42/2/1 44/3/1 43/4/1
f 43/4/6 44/3/6 46/5/6 45/6/6
f 45/6/3 46/5/3 48/7/3 47/8/3
f 47/8/5 48/7/5 42/9/5 41/10/5
f 42/2/2 48/11/2 46/12/2 44/3/2
f 47/13/4 41/1/4 43/4/4 45/14/4
f 49/1/5 50/2/5 52/3/5 51/4/5
f 51/4/1 52/3/1 54/5/1 53/6/1
f 53/6/6 54/5/6 56/7/6 55/8/6
f 55/8/3 56/7/3 50/9/3 49/10/3
f 50/2/2 56/11/2 54/12/2 52/3/2
f 55/13/4 49/1/4 51/4/4 53/14/4
f 57/1/1 58/2/1 60/3/1 59/4/1
f 59/4/6 60/3/6 62/5/6 61/6/6
f 61/6/3 62/5/3 64/7/3 63/8/3
f 63/8/5 64/7/5 58/9/5 57/10/5
f 58/2/2 64/11/2 62/12/2 60/3/2
f 63/13/4 57/1/4 59/4/4 61/14/4
f 65/1/4 66/2/4 68/3/4 67/4/4
f 67/4/1 68/3/1 70/5/1 69/6/1
f 69/6/2 70/5/2 72/7/2 71/8/2
f 71/8/3 72/7/3 66/9/3 65/10/3
f 66/2/5 72/11/5 70/12/5 68/3/5
f 71/13/6 65/1/6 67/4/6 69/14/6
f 73/1/4 74/2/4 76/3/4 75/4/4
f 75/4/5 76/3/5 78/5/5 77/6/5
f 77/6/2 78/5/2 80/7/2 79/8/2
f 79/8/6 80/7/6 74/9/6 73/10/6
f 74/2/3 80/11/3 78/12/3 76/3/3
f 79/13/1 73/1/1 75/4/1 77/14/1
f 81/1/4 82/2/4 84/3/4 83/4/4
f 83/4/1 84/3/1 86/5/1 85/6/1
f 85/6/2 86/5/2 88/7/2 87/8/2
f 87/8/3 88/7/3 82/9/3 81/10/3
f 82/2/5 88/11/5 86/12/5 84/3/5
f 87/13/6 81/1/6 83/4/6 85/14/6
f 89/1/4 90/2/4 92/3/4 91/4/4
f 91/4/5 92/3/5 94/5/5 93/6/5
f 93/6/2 94/5/2 96/7/2 95/8/2
f 95/8/6 96/7/6 90/9/6 89/10/6
f 90/2/3 96/11/3 94/12/3 92/3/3
f 95/13/1 89/1/1 91/4/1 93/14/1
f 97/1/1 98/2/1 100/3/1 99/4/1
f 99/4/2 100/3/2 102/5/2 101/6/2
f 101/6/3 102/5/3 104/7/3 103/8/3
f 103/8/4 104/7/4 98/9/4 97/10/4
f 98/2/5 104/11/5 102/12/5 100/3/5
f 103/13/6 97/1/6 99/4/6 101/14/6
f 105/1/1 106/2/1 108/3/1 107/4/1
f 107/4/2 108/3/2 110/5/2 109/6/2
f 109/6/3 110/5/3 112/7/3 111/8/3
f 111/8/4 112/7/4 106/9/4 105/10/4
f 106/2/5 112/11/5 110/12/5 108/3/5
f 111/13/6 105/1/6 107/4/6 109/14/6
f 113/1/1 114/2/1 116/3/1 115/4/1
f 115/4/2 116/3/2 118/5/2 117/6/2
f 117/6/3 118/5/3 120/7/3 119/8/3
f 119/8/4 120/7/4 114/9/4 113/10/4
f 114/2/5 120/11/5 118/12/5 116/3/5
f 119/13/6 113/1/6 115/4/6 117/14/6
f 121/1/1 122/2/1 124/3/1 123/4/1
f 123/4/2 124/3/2 126/5/2 125/6/2
f 125/6/3 126/5/3 128/7/3 127/8/3
f 127/8/4 128/7/4 122/9/4 121/10/4
f 122/2/5 128/11/5 126/12/5 124/3/5
f 127/13/6 121/1/6 123/4/6 125/14/6
f 129/1/4 130/2/4 132/3/4 131/4/4
f 131/4/1 132/3/1 134/5/1 133/6/1
f 133/6/2 134/5/2 136/7/2 135/8/2
f 135/8/3 136/7/3 130/9/3 129/10/3
f 130/2/5 136/11/5 134/12/5 132/3/5
f 135/13/6 129/1/6 131/4/6 133/14/6
f 137/1/1 138/2/1 140/3/1 139/4/1
f 139/4/6 140/3/6 142/5/6 141/6/6
f 141/6/3 142/5/3 144/7/3 143/8/3
f 143/8/5 144/7/5 138/9/5 137/10/5
f 138/2/2 144/11/2 142/12/2 140/3/2
f 143/13/4 137/1/4 139/4/4 141/14/4
f 145/1/4 146/2/4 148/3/4 147/4/4
f 147/4/1 148/3/1 150/5/1 149/6/1
f 149/6/2 150/5/2 152/7/2 151/8/2
f 151/8/3 152/7/3 146/9/3 145/10/3
f 146/2/5 152/11/5 150/12/5 148/3/5
f 151/13/6 145/1/6 147/4/6 149/14/6
f 153/1/1 154/2/1 156/3/1 155/4/1
f 155/4/6 156/3/6 158/5/6 157/6/6
f 157/6/3 158/5/3 160/7/3 159/8/3
f 159/8/5 160/7/5 154/9/5 153/10/5
f 154/2/2 160/11/2 158/12/2 156/3/2
f 159/13/4 153/1/4 155/4/4 157/14/4
f 161/1/4 162/2/4 164/3/4 163/4/4
f 163/4/1 164/3/1 166/5/1 165/6/1
f 165/6/2 166/5/2 168/7/2 167/8/2
f 167/8/3 168/7/3 162/9/3 161/10/3
f 162/2/5 168/11/5 166/12/5 164/3/5
f 167/13/6 161/1/6 163/4/6 165/14/6
f 169/1/1 170/2/1 172/3/1 171/4/1
f 171/4/6 172/3/6 174/5/6 173/6/6
f 173/6/3 174/5/3 176/7/3 175/8/3
f 175/8/5 176/7/5 170/9/5 169/10/5
f 170/2/2 176/11/2 174/12/2 172/3/2
f 175/13/4 169/1/4 171/4/4 173/14/4
f 177/1/4 178/2/4 180/3/4 179/4/4
f 179/4/1 180/3/1 182/5/1 181/6/1
f 181/6/2 182/5/2 184/7/2 183/8/2
f 183/8/3 184/7/3 178/9/3 177/10/3
f 178/2/5 184/11/5 182/12/5 180/3/5
f 183/13/6 177/1/6 179/4/6 181/14/6
f 185/1/1 186/2/1 188/3/1 187/4/1
f 187/4/6 188/3/6 190/5/6 189/6/6
f 189/6/3 190/5/3 192/7/3 191/8/3
f 191/8/5 192/7/5 186/9/5 185/10/5
f 186/2/2 192/11/2 190/12/2 188/3/2
f 191/13/4 185/1/4 187/4/4 189/14/4
f 193/1/7 194/2/7 196/3/7 195/4/7
f 195/4/8 196/3/8 198/5/8 197/6/8
f 197/6/9 198/5/9 200/7/9 199/8/9
f 199/8/10 200/7/10 194/9/10 193/10/10
f 194/2/11 200/11/11 198/12/11 196/3/11
f 199/13/12 193/1/12 195/4/12 197/14/12
f 201/1/13 202/2/13 204/3/13 203/4/13
f 203/4/14 204/3/14 206/5/14 205/6/14
f 205/6/15 206/5/15 208/7/15 207/8/15
f 207/8/16 208/7/16 202/9/16 201/10/16
f 202/2/17 208/11/17 206/12/17 204/3/17
f 207/13/18 201/1/18 203/4/18 205/14/18
f 209/1/19 210/2/19 212/3/19 211/4/19
f 211/4/20 212/3/20 214/5/20 213/6/20
f 213/6/21 214/5/21 216/7/21 215/8/21
f 215/8/22 216/7/22 210/9/22 209/10/22
f 210/2/11 216/11/11 214/12/11 212/3/11
f 215/13/12 209/1/12 211/4/12 213/14/12
f 217/1/23 218/2/23 220/3/23 219/4/23
f 219/4/24 220/3/24 222/5/24 221/6/24
f 221/6/25 222/5/25 224/7/25 223/8/25
f 223/8/26 224/7/26 218/9/26 217/10/26
f 218/2/17 224/11/17 222/12/17 220/3/17
f 223/13/18 217/1/18 219/4/18 221/14/18
f 225/1/19 226/2/19 228/3/19 227/4/19
f 227/4/20 228/3/20 230/5/20 229/6/20
f 229/6/21 230/5/21 232/7/21 231/8/21
f 231/8/22 232/7/22 226/9/22 225/10/22
f 226/2/11 232/11/11 230/12/11 228/3/11
f 231/13/12 225/1/12 227/4/12 229/14/12
f 233/1/23 234/2/23 236/3/23 235/4/23
f 235/4/24 236/3/24 238/5/24 237/6/24
f 237/6/25 238/5/25 240/7/25 239/8/25
f 239/8/26 240/7/26 234/9/26 233/10/26
f 234/2/17 240/11/17 238/12/17 236/3/17
f 239/13/18 233/1/18 235/4/18 237/14/18
f 241/1/7 242/2/7 244/3/7 243/4/7
f 243/4/8 244/3/8 246/5/8 245/6/8
f 245/6/9 246/5/9 248/7/9 247/8/9
f 247/8/10 248/7/10 242/9/10 241/10/10
f 242/2/11 248/11/11 246/12/11 244/3/11
f 247/13/12 241/1/12 243/4/12 245/14/12
f 249/1/13 250/2/13 252/3/13 251/4/13
f 251/4/14 252/3/14 254/5/14 253/6/14
f 253/6/15 254/5/15 256/7/15 255/8/15
f 255/8/16 256/7/16 250/9/16 249/10/16
f 250/2/17 256/11/17 254/12/17 252/3/17
f 255/13/18 249/1/18 251/4/18 253/14/18
